<svg width="32" height="28" viewBox="0 0 32 28" fill="none" xmlns="http://www.w3.org/2000/svg">
<path d="M14.1125 27.2625L13.9563 27.1188L3.00625 16.95C1.0875 15.1688 0 12.6688 0 10.05V9.84376C0 5.44376 3.125 1.66876 7.45 0.843757C9.9125 0.368757 12.4312 0.937507 14.4375 2.35001C15 2.75001 15.525 3.21251 16 3.74376C16.2625 3.44376 16.5438 3.16876 16.8438 2.91251C17.075 2.71251 17.3125 2.52501 17.5625 2.35001C19.5688 0.937507 22.0875 0.368757 24.55 0.837507C28.875 1.66251 32 5.44376 32 9.84376V10.05C32 12.6688 30.9125 15.1688 28.9937 16.95L18.0438 27.1188L17.8875 27.2625C17.375 27.7375 16.7 28.0063 16 28.0063C15.3 28.0063 14.625 27.7438 14.1125 27.2625ZM14.9438 7.06251C14.9188 7.04376 14.9 7.01876 14.8813 6.99376L13.7688 5.74376L13.7625 5.73751C12.3187 4.11876 10.1375 3.38126 8.0125 3.78751C5.1 4.34376 3 6.88126 3 9.84376V10.05C3 11.8313 3.74375 13.5375 5.05 14.75L16 24.9188L26.95 14.75C28.2563 13.5375 29 11.8313 29 10.05V9.84376C29 6.88751 26.9 4.34376 23.9937 3.78751C21.8687 3.38126 19.6812 4.12501 18.2437 5.73751C18.2437 5.73751 18.2437 5.73751 18.2375 5.74376C18.2312 5.75001 18.2375 5.74376 18.2313 5.75001L17.1187 7.00001C17.1 7.02501 17.075 7.04376 17.0562 7.06876C16.775 7.35001 16.3937 7.50626 16 7.50626C15.6062 7.50626 15.225 7.35001 14.9438 7.06876V7.06251Z" fill="#3A3C3F"/>
</svg>
