<svg width="533" height="175" viewBox="0 0 533 175" fill="none" xmlns="http://www.w3.org/2000/svg">
<path d="M43.968 139V137.08C46.016 136.952 47.552 136.696 48.576 136.312C49.6 135.928 50.272 135.16 50.592 134.008C50.976 132.856 51.168 131.128 51.168 128.824V81.208C51.168 78.84 50.976 77.112 50.592 76.024C50.272 74.872 49.568 74.104 48.48 73.72C47.456 73.272 45.952 73.016 43.968 72.952V71.032C45.696 71.096 47.936 71.16 50.688 71.224C53.504 71.288 56.288 71.32 59.04 71.32C61.984 71.32 64.736 71.288 67.296 71.224C69.92 71.16 72.032 71.096 73.632 71.032V72.952C71.584 73.016 70.016 73.272 68.928 73.72C67.904 74.104 67.232 74.872 66.912 76.024C66.592 77.112 66.432 78.84 66.432 81.208V128.824C66.432 131.128 66.592 132.856 66.912 134.008C67.296 135.16 68 135.928 69.024 136.312C70.048 136.696 71.584 136.952 73.632 137.08V139C72.032 138.872 69.92 138.808 67.296 138.808C64.736 138.744 61.984 138.712 59.04 138.712C56.288 138.712 53.504 138.744 50.688 138.808C47.936 138.808 45.696 138.872 43.968 139ZM3.264 139V137.08C5.312 136.952 6.848 136.696 7.872 136.312C8.896 135.928 9.568 135.16 9.888 134.008C10.272 132.856 10.464 131.128 10.464 128.824V81.208C10.464 78.84 10.272 77.112 9.888 76.024C9.568 74.872 8.864 74.104 7.776 73.72C6.752 73.272 5.248 73.016 3.264 72.952V71.032C4.928 71.096 7.072 71.16 9.696 71.224C12.384 71.288 15.296 71.32 18.432 71.32C21.12 71.32 23.776 71.288 26.4 71.224C29.024 71.16 31.2 71.096 32.928 71.032V72.952C30.88 73.016 29.312 73.272 28.224 73.72C27.2 74.104 26.528 74.872 26.208 76.024C25.888 77.112 25.728 78.84 25.728 81.208V128.824C25.728 131.128 25.888 132.856 26.208 134.008C26.592 135.16 27.296 135.928 28.32 136.312C29.344 136.696 30.88 136.952 32.928 137.08V139C31.2 138.872 29.024 138.808 26.4 138.808C23.776 138.744 21.12 138.712 18.432 138.712C15.296 138.712 12.384 138.744 9.696 138.808C7.072 138.808 4.928 138.872 3.264 139ZM19.488 105.784V103.864H57.408V105.784H19.488ZM102.072 88.024C106.744 88.024 110.84 88.888 114.36 90.616C117.88 92.344 120.632 95.128 122.616 98.968C124.6 102.808 125.592 107.896 125.592 114.232C125.592 120.568 124.6 125.656 122.616 129.496C120.632 133.272 117.88 136.024 114.36 137.752C110.84 139.48 106.744 140.344 102.072 140.344C97.528 140.344 93.464 139.48 89.88 137.752C86.36 136.024 83.576 133.272 81.528 129.496C79.544 125.656 78.552 120.568 78.552 114.232C78.552 107.896 79.544 102.808 81.528 98.968C83.576 95.128 86.36 92.344 89.88 90.616C93.464 88.888 97.528 88.024 102.072 88.024ZM102.072 89.944C99.512 89.944 97.368 91.864 95.64 95.704C93.912 99.48 93.048 105.656 93.048 114.232C93.048 122.808 93.912 128.984 95.64 132.76C97.368 136.536 99.512 138.424 102.072 138.424C104.696 138.424 106.84 136.536 108.504 132.76C110.232 128.984 111.096 122.808 111.096 114.232C111.096 105.656 110.232 99.48 108.504 95.704C106.84 91.864 104.696 89.944 102.072 89.944ZM150.232 63.832V130.072C150.232 132.76 150.68 134.584 151.576 135.544C152.536 136.504 154.136 136.984 156.376 136.984V139C155.16 138.936 153.336 138.872 150.904 138.808C148.472 138.68 146.008 138.616 143.512 138.616C141.016 138.616 138.488 138.68 135.928 138.808C133.432 138.872 131.544 138.936 130.264 139V136.984C132.504 136.984 134.072 136.504 134.968 135.544C135.928 134.584 136.408 132.76 136.408 130.072V75.352C136.408 72.472 135.96 70.36 135.064 69.016C134.232 67.608 132.632 66.904 130.264 66.904V64.888C132.312 65.08 134.296 65.176 136.216 65.176C138.84 65.176 141.336 65.08 143.704 64.888C146.072 64.632 148.248 64.28 150.232 63.832ZM207.404 89.368V91.288C206.188 91.608 205.036 92.376 203.948 93.592C202.86 94.744 201.804 96.728 200.78 99.544L187.244 137.56L183.692 144.28L162.764 96.76C161.676 94.264 160.588 92.76 159.5 92.248C158.476 91.672 157.58 91.384 156.812 91.384V89.368C158.924 89.56 161.1 89.72 163.34 89.848C165.644 89.912 167.852 89.944 169.964 89.944C172.588 89.944 174.988 89.88 177.164 89.752C179.34 89.624 181.388 89.496 183.308 89.368V91.384C182.028 91.384 180.812 91.48 179.66 91.672C178.572 91.8 177.804 92.248 177.356 93.016C176.972 93.72 177.164 94.968 177.932 96.76L190.028 125.944L189.164 126.52L196.268 106.648C197.484 103.192 197.996 100.376 197.804 98.2C197.612 95.96 196.908 94.296 195.692 93.208C194.476 92.056 192.812 91.416 190.7 91.288V89.368C191.724 89.432 192.78 89.496 193.868 89.56C194.956 89.56 196.044 89.592 197.132 89.656C198.22 89.656 199.18 89.656 200.012 89.656C201.292 89.656 202.636 89.624 204.044 89.56C205.452 89.496 206.572 89.432 207.404 89.368ZM187.244 137.56L183.596 147.832C182.956 149.432 182.284 150.776 181.58 151.864C180.94 153.016 180.204 153.944 179.372 154.648C178.476 155.416 177.324 155.992 175.916 156.376C174.508 156.824 172.876 157.048 171.02 157.048C169.484 157.048 167.884 156.792 166.22 156.28C164.62 155.768 163.276 154.936 162.188 153.784C161.1 152.632 160.556 151.16 160.556 149.368C160.556 147.384 161.26 145.784 162.668 144.568C164.076 143.416 165.932 142.84 168.236 142.84C170.348 142.84 172.076 143.352 173.42 144.376C174.764 145.4 175.436 146.904 175.436 148.888C175.436 150.168 175.02 151.384 174.188 152.536C173.42 153.688 172.236 154.552 170.636 155.128C170.956 155.192 171.34 155.224 171.788 155.224C172.236 155.224 172.588 155.224 172.844 155.224C174.764 155.224 176.46 154.616 177.932 153.4C179.404 152.184 180.62 150.264 181.58 147.64L184.94 137.752L187.244 137.56ZM269.09 71.032V72.952C267.874 73.208 266.562 73.944 265.154 75.16C263.81 76.376 262.594 78.424 261.506 81.304L238.946 139.48C238.818 139.48 238.69 139.48 238.562 139.48C238.434 139.48 238.306 139.48 238.178 139.48C238.05 139.48 237.922 139.48 237.794 139.48C237.666 139.48 237.538 139.48 237.41 139.48L213.986 79.096C213.026 76.664 211.938 75.064 210.722 74.296C209.506 73.464 208.386 73.016 207.361 72.952V71.032C208.642 71.096 210.21 71.16 212.066 71.224C213.986 71.288 215.842 71.32 217.634 71.32C220.13 71.32 222.466 71.288 224.642 71.224C226.818 71.16 228.578 71.096 229.922 71.032V72.952C227.746 73.016 226.082 73.272 224.93 73.72C223.842 74.168 223.234 74.968 223.106 76.12C223.042 77.208 223.426 78.84 224.258 81.016L242.114 128.344L240.578 129.976L257.281 86.584C258.626 83.128 259.266 80.44 259.202 78.52C259.138 76.536 258.402 75.128 256.994 74.296C255.586 73.464 253.538 73.016 250.85 72.952V71.032C252.706 71.096 254.594 71.16 256.514 71.224C258.434 71.288 260.226 71.32 261.89 71.32C263.554 71.32 264.93 71.288 266.018 71.224C267.106 71.16 268.13 71.096 269.09 71.032ZM288.8 88.216C294.432 88.216 298.816 89.944 301.952 93.4C305.152 96.792 306.752 102.104 306.752 109.336H272.864L272.768 107.512H297.536C297.664 104.376 297.408 101.496 296.768 98.872C296.128 96.184 295.104 94.04 293.696 92.44C292.352 90.84 290.592 90.04 288.416 90.04C285.472 90.04 282.848 91.512 280.544 94.456C278.304 97.4 276.96 102.072 276.512 108.472L276.799 108.856C276.672 109.816 276.576 110.872 276.512 112.024C276.448 113.176 276.416 114.328 276.416 115.48C276.416 119.832 277.12 123.576 278.528 126.712C279.936 129.848 281.76 132.248 284 133.912C286.304 135.512 288.672 136.312 291.104 136.312C293.024 136.312 294.848 136.024 296.576 135.448C298.304 134.808 299.904 133.784 301.376 132.376C302.848 130.968 304.128 129.08 305.216 126.712L307.136 127.48C306.432 129.592 305.28 131.64 303.68 133.624C302.08 135.608 300.064 137.24 297.632 138.52C295.2 139.736 292.384 140.344 289.184 140.344C284.576 140.344 280.608 139.288 277.28 137.176C274.016 135.064 271.488 132.152 269.696 128.44C267.968 124.664 267.104 120.344 267.104 115.48C267.104 109.848 268 105.016 269.792 100.984C271.584 96.888 274.112 93.752 277.376 91.576C280.64 89.336 284.448 88.216 288.8 88.216ZM343.89 88.216C345.618 88.216 347.122 88.568 348.402 89.272C349.746 89.976 350.77 90.904 351.474 92.056C352.242 93.144 352.626 94.392 352.626 95.8C352.626 97.4 352.114 98.808 351.09 100.024C350.13 101.24 348.818 101.848 347.154 101.848C345.81 101.848 344.626 101.432 343.602 100.6C342.578 99.704 342.066 98.456 342.066 96.856C342.066 95.64 342.386 94.616 343.026 93.784C343.73 92.888 344.498 92.184 345.33 91.672C344.882 91.032 344.21 90.712 343.314 90.712C341.33 90.712 339.506 91.32 337.842 92.536C336.178 93.688 334.77 95.192 333.618 97.048C332.466 98.904 331.57 100.888 330.93 103C330.29 105.048 329.97 106.968 329.97 108.76V129.112C329.97 132.248 330.866 134.36 332.658 135.448C334.514 136.472 337.01 136.984 340.146 136.984V139C338.674 138.936 336.594 138.872 333.906 138.808C331.218 138.68 328.37 138.616 325.362 138.616C323.186 138.616 321.01 138.68 318.834 138.808C316.722 138.872 315.122 138.936 314.034 139V136.984C316.658 136.984 318.514 136.504 319.602 135.544C320.754 134.584 321.33 132.76 321.33 130.072V100.024C321.33 97.144 320.818 95.032 319.794 93.688C318.77 92.28 316.85 91.576 314.034 91.576V89.56C316.082 89.752 318.066 89.848 319.986 89.848C321.842 89.848 323.602 89.752 325.266 89.56C326.994 89.304 328.562 88.952 329.97 88.504V100.504C330.674 98.648 331.666 96.792 332.946 94.936C334.29 93.016 335.89 91.416 337.746 90.136C339.602 88.856 341.65 88.216 343.89 88.216ZM373.968 88.216C376.528 88.216 378.704 88.632 380.496 89.464C382.288 90.296 383.6 91.064 384.432 91.768C386.544 93.496 387.824 92.344 388.272 88.312H390.48C390.352 90.104 390.256 92.248 390.192 94.744C390.128 97.176 390.096 100.472 390.096 104.632H387.888C387.504 102.264 386.832 99.96 385.872 97.72C384.976 95.48 383.632 93.656 381.84 92.248C380.048 90.776 377.712 90.04 374.832 90.04C372.592 90.04 370.704 90.68 369.168 91.96C367.696 93.176 366.96 95 366.96 97.432C366.96 99.352 367.536 101.016 368.688 102.424C369.84 103.768 371.344 105.048 373.2 106.264C375.056 107.416 377.072 108.696 379.248 110.104C381.68 111.64 383.888 113.208 385.872 114.808C387.856 116.408 389.424 118.168 390.576 120.088C391.792 122.008 392.4 124.28 392.4 126.904C392.4 129.848 391.632 132.312 390.096 134.296C388.56 136.28 386.544 137.784 384.048 138.808C381.616 139.832 378.928 140.344 375.984 140.344C374.576 140.344 373.232 140.216 371.952 139.96C370.736 139.768 369.552 139.448 368.4 139C367.76 138.68 367.088 138.296 366.384 137.848C365.744 137.4 365.104 136.92 364.464 136.408C363.824 135.896 363.248 135.928 362.736 136.504C362.224 137.016 361.84 138.072 361.584 139.672H359.376C359.504 137.624 359.6 135.128 359.664 132.184C359.728 129.24 359.76 125.336 359.76 120.472H361.968C362.416 124.056 363.056 127.192 363.888 129.88C364.72 132.568 366.032 134.68 367.824 136.216C369.616 137.688 372.112 138.424 375.312 138.424C376.592 138.424 377.872 138.136 379.152 137.56C380.496 136.984 381.616 136.024 382.512 134.68C383.408 133.336 383.856 131.544 383.856 129.304C383.856 126.488 382.832 124.184 380.784 122.392C378.736 120.6 376.144 118.712 373.008 116.728C370.704 115.256 368.528 113.784 366.48 112.312C364.496 110.84 362.864 109.176 361.584 107.32C360.368 105.464 359.76 103.224 359.76 100.6C359.76 97.72 360.4 95.384 361.68 93.592C363.024 91.736 364.784 90.392 366.96 89.56C369.136 88.664 371.472 88.216 373.968 88.216ZM423.05 88.216C428.682 88.216 433.066 89.944 436.202 93.4C439.402 96.792 441.002 102.104 441.002 109.336H407.114L407.018 107.512H431.786C431.914 104.376 431.658 101.496 431.018 98.872C430.378 96.184 429.354 94.04 427.946 92.44C426.602 90.84 424.842 90.04 422.666 90.04C419.722 90.04 417.098 91.512 414.794 94.456C412.554 97.4 411.21 102.072 410.762 108.472L411.049 108.856C410.922 109.816 410.826 110.872 410.762 112.024C410.698 113.176 410.666 114.328 410.666 115.48C410.666 119.832 411.37 123.576 412.778 126.712C414.186 129.848 416.01 132.248 418.25 133.912C420.554 135.512 422.922 136.312 425.354 136.312C427.274 136.312 429.098 136.024 430.826 135.448C432.554 134.808 434.154 133.784 435.626 132.376C437.098 130.968 438.378 129.08 439.466 126.712L441.386 127.48C440.682 129.592 439.53 131.64 437.93 133.624C436.33 135.608 434.314 137.24 431.882 138.52C429.45 139.736 426.634 140.344 423.434 140.344C418.826 140.344 414.858 139.288 411.53 137.176C408.266 135.064 405.738 132.152 403.946 128.44C402.218 124.664 401.354 120.344 401.354 115.48C401.354 109.848 402.25 105.016 404.042 100.984C405.834 96.888 408.362 93.752 411.626 91.576C414.89 89.336 418.698 88.216 423.05 88.216Z" fill="#3A3C3F"/>
<path d="M398.5 73.5L382.5 53.5" stroke="#1B9AAA"/>
<path d="M378 47.5L380.5 51" stroke="#1B9AAA"/>
<path d="M404.5 71L374.5 7" stroke="#1B9AAA"/>
<path d="M413 67L406 41" stroke="#1B9AAA"/>
<path d="M404.638 37.6316L403.862 34.3684" stroke="#1B9AAA"/>
<path d="M421 66.5L416.5 16.5" stroke="#1B9AAA"/>
<path d="M428.5 66.5L431 38.5" stroke="#1B9AAA"/>
<path d="M430.893 34.9962L431.107 32.0038" stroke="#1B9AAA"/>
<path d="M435 67.5L456 1" stroke="#1B9AAA"/>
<path d="M443 71.5L456.5 46" stroke="#1B9AAA"/>
<path d="M457.4 43.4537L459.1 40.0463" stroke="#1B9AAA"/>
<path d="M449.5 75.5L480 36.5" stroke="#1B9AAA"/>
<path d="M454.5 80L474.5 62.5" stroke="#1B9AAA"/>
<path d="M477.5 60L480.5 57.5" stroke="#1B9AAA"/>
<path d="M458.5 85L522 53" stroke="#1B9AAA"/>
<path d="M462.5 92.5L487.5 84.5" stroke="#1B9AAA"/>
<path d="M490 83.5L493.5 82.5" stroke="#1B9AAA"/>
<path d="M464 101L513.5 95.5" stroke="#1B9AAA"/>
<path d="M464.5 109L490.5 110" stroke="#1B9AAA"/>
<path d="M494 110.5H496.5" stroke="#1B9AAA"/>
<path d="M464 116.5L532.5 133" stroke="#1B9AAA"/>
<path d="M461.5 124.5L484 135" stroke="#1B9AAA"/>
<path d="M486.872 136.725L490.127 138.275" stroke="#1B9AAA"/>
<path d="M457.5 130.5L512.5 174" stroke="#1B9AAA"/>
<path d="M393 79L338 35.5" stroke="#1B9AAA"/>
</svg>
