<svg width="25" height="28" viewBox="0 0 25 28" fill="none" xmlns="http://www.w3.org/2000/svg">
<g clip-path="url(#clip0_9_41)">
<path d="M25 11.4789C22.5424 11.4841 20.1452 10.7322 18.1473 9.32969V19.1078C18.1468 20.9188 17.582 22.6864 16.5285 24.1743C15.4751 25.6621 13.9832 26.7993 12.2524 27.4337C10.5216 28.0682 8.63437 28.1696 6.84316 27.7244C5.05195 27.2792 3.44213 26.3087 2.22901 24.9426C1.01589 23.5765 0.257307 21.88 0.0547068 20.08C-0.147893 18.2799 0.215153 16.4622 1.09529 14.8698C1.97543 13.2775 3.3307 11.9864 4.97984 11.1694C6.62898 10.3523 8.49337 10.0482 10.3237 10.2977V15.2141C9.48676 14.9559 8.58801 14.9634 7.75575 15.2356C6.92348 15.5079 6.20026 16.0308 5.68934 16.7298C5.17842 17.4289 4.90594 18.2682 4.91079 19.128C4.91564 19.9879 5.19758 20.8242 5.71635 21.5177C6.23512 22.2111 6.9642 22.7262 7.79949 22.9894C8.63477 23.2526 9.53355 23.2504 10.3675 22.9831C11.2014 22.7159 11.9279 22.1973 12.4432 21.5013C12.9584 20.8054 13.2361 19.9677 13.2366 19.1078V0H18.1473C18.1446 0.407019 18.1801 0.813424 18.2534 1.21406C18.4241 2.10711 18.7789 2.95665 19.2961 3.71076C19.8133 4.46487 20.4819 5.10772 21.2612 5.6C22.3704 6.31796 23.6707 6.70024 25 6.69922V11.4789Z" fill="#3A3C3F" fill-opacity="0.5"/>
</g>
<defs>
<clipPath id="clip0_9_41">
<rect width="25" height="28" fill="white"/>
</clipPath>
</defs>
</svg>
